<svg width="24" height="24" viewBox="0 0 24 24" fill="none" xmlns="http://www.w3.org/2000/svg">
<path fill-rule="evenodd" clip-rule="evenodd" d="M10 2C4.48 2 0 6.48 0 12C0 17.52 4.48 22 10 22C15.52 22 20 17.52 20 12C20 6.48 15.52 2 10 2ZM5.07 18.28C5.5 17.38 8.12 16.5 10 16.5C11.88 16.5 14.51 17.38 14.93 18.28C13.57 19.36 11.86 20 10 20C8.14 20 6.43 19.36 5.07 18.28ZM10 14.5C11.46 14.5 14.93 15.09 16.36 16.83C17.38 15.49 18 13.82 18 12C18 7.59 14.41 4 10 4C5.59 4 2 7.59 2 12C2 13.82 2.62 15.49 3.64 16.83C5.07 15.09 8.54 14.5 10 14.5ZM10 6C8.06 6 6.5 7.56 6.5 9.5C6.5 11.44 8.06 13 10 13C11.94 13 13.5 11.44 13.5 9.5C13.5 7.56 11.94 6 10 6ZM8.5 9.5C8.5 10.33 9.17 11 10 11C10.83 11 11.5 10.33 11.5 9.5C11.5 8.67 10.83 8 10 8C9.17 8 8.5 8.67 8.5 9.5Z" fill="#E31B23" fill-opacity="0.54"/>
</svg>
